# xmcd
#
# Track frame offsets: 
#        150
#        12456
#        24769
#        37431
#        49409
#        60583
#        71594
#        81706
#        92134
#        102089
#        112236
#        123944
#        135775
#        145741
#        157785
#        169177
#        179004
#        189841
#        202176
#        213085
#
# Disc length: 2985 seconds
#
# Revision: 0
# Processed by: cddbd v1.5.2PL0 Copyright (c) Steve Scherf et al.
# Submitted via: ExactAudioCopy v1.3
#
DISCID=1e0ba714
DTITLE=Diverse Künstler - 40 Country Greats CD 2
DYEAR=2009
DGENRE=Country
TTITLE0=Hank Williams - Cold Cold Heart
TTITLE1=Lynn Anderson - Stand By Your Man
TTITLE2=Kenny Rogers - Reuben James
TTITLE3=Billie Jo Spears - Misty Blue
TTITLE4=Jim Reeves - According To My Heart
TTITLE5=Marty Robbins - Singing The Blues
TTITLE6=Kitty Wells - I Can't Stop Loving You
TTITLE7=Goldie Hill and Justin Hill - Looking Back To See
TTITLE8=Johnny Cash - Ballad Of A Teenage Queen
TTITLE9=Faron Young - King Of The Road
TTITLE10=Patsy Cline - A Poor Man's Roses
TTITLE11=Tennessee Ernie Ford - Sixteen Tons
TTITLE12=Johnny Horton - Tennessee Jive
TTITLE13=Dolly Parton - Making Believe
TTITLE14=Don Gibson - Oh Lonesome Me
TTITLE15=Carl Perkins - This Ole House
TTITLE16=Donna Fargo - Wishful Thinking
TTITLE17=Charlie Rich - Behind Closed Doors
TTITLE18=Hank Snow - Let Me Go Lover
TTITLE19=Slim Whitman - Rose Marie
EXTD=
EXTT0=
EXTT1=
EXTT2=
EXTT3=
EXTT4=
EXTT5=
EXTT6=
EXTT7=
EXTT8=
EXTT9=
EXTT10=
EXTT11=
EXTT12=
EXTT13=
EXTT14=
EXTT15=
EXTT16=
EXTT17=
EXTT18=
EXTT19=
PLAYORDER=
